<svg xmlns="http://www.w3.org/2000/svg">
    <symbol id="very-good-face" viewBox="0 0 24 24">
        <path d="M12 22C6.47715 22 2 17.5228 2 12C2 6.47715 6.47715 2 12 2C17.5228 2 22 6.47715 22 12C22 17.5228 17.5228 22 12 22ZM12 20C16.4183 20 20 16.4183 20 12C20 7.58172 16.4183 4 12 4C7.58172 4 4 7.58172 4 12C4 16.4183 7.58172 20 12 20ZM8 13H16C16 15.2091 14.2091 17 12 17C9.79086 17 8 15.2091 8 13ZM8 11C7.17157 11 6.5 10.3284 6.5 9.5C6.5 8.67157 7.17157 8 8 8C8.82843 8 9.5 8.67157 9.5 9.5C9.5 10.3284 8.82843 11 8 11ZM16 11C15.1716 11 14.5 10.3284 14.5 9.5C14.5 8.67157 15.1716 8 16 8C16.8284 8 17.5 8.67157 17.5 9.5C17.5 10.3284 16.8284 11 16 11Z"></path>
    </symbol>
    <symbol id="good-face" viewBox="0 0 24 24">
        <path d="M12 22C6.47715 22 2 17.5228 2 12C2 6.47715 6.47715 2 12 2C17.5228 2 22 6.47715 22 12C22 17.5228 17.5228 22 12 22ZM12 20C16.4183 20 20 16.4183 20 12C20 7.58172 16.4183 4 12 4C7.58172 4 4 7.58172 4 12C4 16.4183 7.58172 20 12 20ZM7 13H9C9 14.6569 10.3431 16 12 16C13.6569 16 15 14.6569 15 13H17C17 15.7614 14.7614 18 12 18C9.23858 18 7 15.7614 7 13ZM8 11C7.17157 11 6.5 10.3284 6.5 9.5C6.5 8.67157 7.17157 8 8 8C8.82843 8 9.5 8.67157 9.5 9.5C9.5 10.3284 8.82843 11 8 11ZM16 11C15.1716 11 14.5 10.3284 14.5 9.5C14.5 8.67157 15.1716 8 16 8C16.8284 8 17.5 8.67157 17.5 9.5C17.5 10.3284 16.8284 11 16 11Z"></path>
    </symbol>
    <symbol id="average-face" viewBox="0 0 24 24">
        <path d="M12 22C6.47715 22 2 17.5228 2 12C2 6.47715 6.47715 2 12 2C17.5228 2 22 6.47715 22 12C22 17.5228 17.5228 22 12 22ZM12 20C16.4183 20 20 16.4183 20 12C20 7.58172 16.4183 4 12 4C7.58172 4 4 7.58172 4 12C4 16.4183 7.58172 20 12 20ZM8 14H16V16H8V14ZM8 11C7.17157 11 6.5 10.3284 6.5 9.5C6.5 8.67157 7.17157 8 8 8C8.82843 8 9.5 8.67157 9.5 9.5C9.5 10.3284 8.82843 11 8 11ZM16 11C15.1716 11 14.5 10.3284 14.5 9.5C14.5 8.67157 15.1716 8 16 8C16.8284 8 17.5 8.67157 17.5 9.5C17.5 10.3284 16.8284 11 16 11Z"></path>
    </symbol>
    <symbol id="poor-face" viewBox="0 0 24 24">
        <path d="M12 2C17.5228 2 22 6.47715 22 12C22 12.7266 21.9225 13.4351 21.7753 14.1177L19.9931 12.3355C19.9977 12.2242 20 12.1124 20 12C20 7.58172 16.4183 4 12 4C7.58172 4 4 7.58172 4 12C4 16.4183 7.58172 20 12 20C13.3023 20 14.5319 19.6888 15.6186 19.1368C15.7735 19.3828 15.958 19.6149 16.1716 19.8284C16.4739 20.1307 16.8125 20.3745 17.1734 20.5598C15.6642 21.4737 13.8936 22 12 22C6.47715 22 2 17.5228 2 12C2 6.47715 6.47715 2 12 2ZM19 14.1716L20.4142 15.5858C21.1953 16.3668 21.1953 17.6332 20.4142 18.4142C19.6332 19.1953 18.3668 19.1953 17.5858 18.4142C16.8402 17.6687 16.8064 16.481 17.4841 15.6952L17.5858 15.5858L19 14.1716ZM12 15C13.4664 15 14.7853 15.6312 15.6999 16.6368L14.7549 17.4961C13.965 17.1825 13.018 17 12 17C10.982 17 10.035 17.1825 9.24506 17.4961L8.30009 16.6368C9.21468 15.6312 10.5336 15 12 15ZM8.5 10C9.32843 10 10 10.6716 10 11.5C10 12.3284 9.32843 13 8.5 13C7.67157 13 7 12.3284 7 11.5C7 10.6716 7.67157 10 8.5 10ZM15.5 10C16.3284 10 17 10.6716 17 11.5C17 12.3284 16.3284 13 15.5 13C14.6716 13 14 12.3284 14 11.5C14 10.6716 14.6716 10 15.5 10Z"></path>
    </symbol>
    <symbol id="very-poor-face" viewBox="0 0 24 24">
        <path d="M12 22C6.47715 22 2 17.5228 2 12C2 6.47715 6.47715 2 12 2C17.5228 2 22 6.47715 22 12C22 17.5228 17.5228 22 12 22ZM12 20C16.4183 20 20 16.4183 20 12C20 7.58172 16.4183 4 12 4C7.58172 4 4 7.58172 4 12C4 16.4183 7.58172 20 12 20ZM7 17C7 14.2386 9.23858 12 12 12C14.7614 12 17 14.2386 17 17H15C15 15.3431 13.6569 14 12 14C10.3431 14 9 15.3431 9 17H7ZM8 11C7.17157 11 6.5 10.3284 6.5 9.5C6.5 8.67157 7.17157 8 8 8C8.82843 8 9.5 8.67157 9.5 9.5C9.5 10.3284 8.82843 11 8 11ZM16 11C15.1716 11 14.5 10.3284 14.5 9.5C14.5 8.67157 15.1716 8 16 8C16.8284 8 17.5 8.67157 17.5 9.5C17.5 10.3284 16.8284 11 16 11Z"></path>
    </symbol>
    <symbol id="dont-know-face" viewBox="0 0 24 24">
        <path d="M10 20C4.477 20 0 15.523 0 10C0 4.477 4.477 0 10 0C15.523 0 20 4.477 20 10C20 15.523 15.523 20 10 20ZM10 18C12.1217 18 14.1566 17.1571 15.6569 15.6569C17.1571 14.1566 18 12.1217 18 10C18 7.87827 17.1571 5.84344 15.6569 4.34315C14.1566 2.84285 12.1217 2 10 2C7.87827 2 5.84344 2.84285 4.34315 4.34315C2.84285 5.84344 2 7.87827 2 10C2 12.1217 2.84285 14.1566 4.34315 15.6569C5.84344 17.1571 7.87827 18 10 18ZM6 9C5.60218 9 5.22064 8.84196 4.93934 8.56066C4.65804 8.27936 4.5 7.89782 4.5 7.5C4.5 7.10218 4.65804 6.72064 4.93934 6.43934C5.22064 6.15804 5.60218 6 6 6C6.39782 6 6.77936 6.15804 7.06066 6.43934C7.34196 6.72064 7.5 7.10218 7.5 7.5C7.5 7.89782 7.34196 8.27936 7.06066 8.56066C6.77936 8.84196 6.39782 9 6 9ZM14 9C13.6022 9 13.2206 8.84196 12.9393 8.56066C12.658 8.27936 12.5 7.89782 12.5 7.5C12.5 7.10218 12.658 6.72064 12.9393 6.43934C13.2206 6.15804 13.6022 6 14 6C14.3978 6 14.7794 6.15804 15.0607 6.43934C15.342 6.72064 15.5 7.10218 15.5 7.5C15.5 7.89782 15.342 8.27936 15.0607 8.56066C14.7794 8.84196 14.3978 9 14 9Z" />
    </symbol>
</svg>